HIERARCHY
ROOT Hips
{
	OFFSET 0.000000 0.000000 0.000000
	CHANNELS 6 Xposition Yposition Zposition Xrotation Yrotation Zrotation
	JOINT LeftUpLeg_virtual
	{
		OFFSET 0.000000 0.000000 0.000000
		CHANNELS 3 Xrotation Yrotation Zrotation
		JOINT LeftUpLeg
		{
			OFFSET 10.205400 -3.823500 0.155100
			CHANNELS 3 Xrotation Yrotation Zrotation
			JOINT LeftLeg
			{
				OFFSET 0.708757 -12.982077 0.567790
				CHANNELS 3 Xrotation Yrotation Zrotation
				JOINT LeftFoot
				{
					OFFSET -0.708756 -10.717838 -2.184338
					CHANNELS 3 Xrotation Yrotation Zrotation
					JOINT LeftToeBase
					{
						OFFSET 0.108149 -7.191104 7.560241
						CHANNELS 3 Xrotation Yrotation Zrotation
						JOINT LeftToe_End
						{
							OFFSET 0.070230 0.081724 4.490308
							CHANNELS 3 Xrotation Yrotation Zrotation
							End Site
							{
								OFFSET 0 0 0
							}
						}
					}
				}
			}
		}
	}
	JOINT RightUpLeg_virtual
	{
		OFFSET 0.000000 0.000000 0.000000
		CHANNELS 3 Xrotation Yrotation Zrotation
		JOINT RightUpLeg
		{
			OFFSET -10.205400 -3.823500 0.005500
			CHANNELS 3 Xrotation Yrotation Zrotation
			JOINT RightLeg
			{
				OFFSET -0.708756 -12.982134 0.610632
				CHANNELS 3 Xrotation Yrotation Zrotation
				JOINT RightFoot
				{
					OFFSET 0.708754 -10.717769 -1.945823
					CHANNELS 3 Xrotation Yrotation Zrotation
					JOINT RightToeBase
					{
						OFFSET -0.108140 -7.191069 7.372968
						CHANNELS 3 Xrotation Yrotation Zrotation
						JOINT RightToe_End
						{
							OFFSET -0.070227 0.081735 4.479403
							CHANNELS 3 Xrotation Yrotation Zrotation
							End Site
							{
								OFFSET 0 0 0
							}
						}
					}
				}
			}
		}
	}
	JOINT Spine_virtual
	{
		OFFSET 0.000000 0.000000 0.000000
		CHANNELS 3 Xrotation Yrotation Zrotation
		JOINT Spine
		{
			OFFSET 0.000000 6.876099 0.125700
			CHANNELS 3 Xrotation Yrotation Zrotation
			JOINT Spine1
			{
				OFFSET 0.000000 5.730043 0.104720
				CHANNELS 3 Xrotation Yrotation Zrotation
				JOINT Spine1_split
				{
					OFFSET 0.000000 5.730043 0.104720
					CHANNELS 3 Xrotation Yrotation Zrotation
					JOINT Spine2
					{
						OFFSET 0.000000 5.730043 0.104720
						CHANNELS 3 Xrotation Yrotation Zrotation
						JOINT Neck_virtual
						{
							OFFSET 0.000000 0.000000 0.000000
							CHANNELS 3 Xrotation Yrotation Zrotation
							JOINT Neck
							{
								OFFSET 0.000000 10.314075 0.188496
								CHANNELS 3 Xrotation Yrotation Zrotation
								JOINT Head
								{
									OFFSET 0.000000 7.643700 -2.377400
									CHANNELS 3 Xrotation Yrotation Zrotation
									JOINT HeadTop_End
									{
										OFFSET 0.000000 43.788605 -13.619600
										CHANNELS 3 Xrotation Yrotation Zrotation
										End Site
										{
											OFFSET 0 0 0
										}
									}
								}
							}
						}
						JOINT LeftShoulder_virtual
						{
							OFFSET 0.000000 0.000000 0.000000
							CHANNELS 3 Xrotation Yrotation Zrotation
							JOINT LeftShoulder
							{
								OFFSET 2.196100 4.412489 0.087492
								CHANNELS 3 Xrotation Yrotation Zrotation
								JOINT LeftShoulder_split
								{
									OFFSET 2.196100 4.412489 0.087492
									CHANNELS 3 Xrotation Yrotation Zrotation
									JOINT LeftArm
									{
										OFFSET 8.771219 -2.981674 -0.026999
										CHANNELS 3 Xrotation Yrotation Zrotation
										JOINT LeftForeArm
										{
											OFFSET 8.512804 0.000000 -0.000000
											CHANNELS 3 Xrotation Yrotation Zrotation
											JOINT LeftHand
											{
												OFFSET 18.484802 0.000000 -0.000000
												CHANNELS 3 Xrotation Yrotation Zrotation
												End Site
												{
													OFFSET 0 0 0
												}
											}
										}
									}
								}
							}
						}
						JOINT RightShoulder_virtual
						{
							OFFSET 0.000000 0.000000 0.000000
							CHANNELS 3 Xrotation Yrotation Zrotation
							JOINT RightShoulder
							{
								OFFSET -2.196100 4.412496 0.070690
								CHANNELS 3 Xrotation Yrotation Zrotation
								JOINT RightShoulder_split
								{
									OFFSET -2.196100 4.412496 0.070690
									CHANNELS 3 Xrotation Yrotation Zrotation
									JOINT RightArm
									{
										OFFSET -8.771282 -2.981682 -0.094208
										CHANNELS 3 Xrotation Yrotation Zrotation
										JOINT RightForeArm
										{
											OFFSET -8.494598 0.000000 0.000000
											CHANNELS 3 Xrotation Yrotation Zrotation
											JOINT RightHand
											{
												OFFSET -18.483803 0.000000 0.000001
												CHANNELS 3 Xrotation Yrotation Zrotation
												End Site
												{
													OFFSET 0 0 0
												}
											}
										}
									}
								}
							}
						}
					}
				}
			}
		}
	}
}
MOTION
Frames: 8
Frame Time: 0.03333333
0.298547 27.010986 1.771378 0.000000 0.000000 0.000000 22.032942 -19.308936 7.545186 -72.368996 -1.539527 23.821072 59.324332 -0.196879 3.742433 -3.494823 2.777659 -26.026916 -2.677177 -0.171363 -0.735833 0.000000 0.000000 0.000000 21.313025 -20.333758 7.940530 -63.749407 -2.871044 -24.985027 61.086446 1.007697 -9.341867 -15.119664 -5.337004 20.903022 -4.242634 1.788983 -0.304912 0.000000 0.000000 0.000000 24.275508 -21.604766 7.944639 16.046758 2.145311 -1.161291 10.218116 2.106580 -1.211659 1.074068 0.666565 0.740113 0.000000 0.000000 0.000000 10.279919 1.774098 -0.475114 -8.190963 5.162244 -8.951888 -40.765779 9.769410 8.553758 0.000000 0.000000 0.000000 10.260884 1.837919 -1.255378 3.660542 -6.293352 7.050067 -5.792616 -3.048578 -0.655210 -51.887345 4.599168 -60.937623 -1.594208 -84.049911 -0.219627 0.000000 0.000000 0.000000 11.502255 2.375771 -0.497353 2.837571 14.151929 4.701747 -1.041199 2.243764 1.025371 -40.996079 10.265317 45.869259 160.908178 88.430650 -161.391510 0.000000 0.000000 0.000000 
0.335844 27.073696 1.862726 0.000000 0.000000 0.000000 22.289400 -18.956538 7.770552 -72.125869 -1.092404 23.365732 58.471842 -0.574660 3.911838 -3.713726 2.704548 -26.107698 -2.842654 -0.143047 -0.517454 0.000000 0.000000 0.000000 21.664964 -20.210963 8.245302 -63.508185 -2.924906 -24.714949 60.286460 1.426798 -9.976669 -15.254230 -5.637253 20.983723 -4.267515 1.893725 -0.295077 0.000000 0.000000 0.000000 24.279195 -21.174244 8.065419 16.151540 2.179700 -1.135472 10.074580 2.161358 -1.282825 1.038748 0.238320 0.779442 0.000000 0.000000 0.000000 10.408616 1.809931 -0.542854 -7.786592 5.184245 -8.623239 -40.987535 10.600016 8.303549 0.000000 0.000000 0.000000 10.307096 1.875634 -1.213619 3.466197 -5.574777 6.148100 -5.883461 -3.068507 -0.800261 -50.386101 5.117089 -61.902558 -2.861153 -86.126718 -1.587295 0.000000 0.000000 0.000000 11.499125 2.307644 -0.585964 2.737387 13.949080 5.891083 -1.393309 2.625745 0.870113 -39.285291 10.685863 46.649960 174.790360 85.145343 -175.398616 0.000000 0.000000 0.000000 
0.332464 27.070892 1.933809 0.000000 0.000000 0.000000 22.524997 -18.809470 8.082777 -72.170825 -0.739824 23.124973 58.200179 -0.945303 4.056837 -3.889453 2.615444 -26.290662 -2.970933 -0.135827 -0.255368 0.000000 0.000000 0.000000 22.133045 -20.216954 8.624160 -63.659255 -2.761513 -24.470476 59.964758 1.695796 -10.534405 -15.328807 -5.678169 21.043231 -4.298426 2.000528 -0.291994 0.000000 0.000000 0.000000 24.332013 -20.895260 8.226317 16.262931 2.123807 -1.140992 10.038783 2.070035 -1.314051 0.967245 0.041711 0.730573 0.000000 0.000000 0.000000 10.607379 1.707084 -0.590021 -7.311799 5.183232 -8.327962 -41.225376 11.423126 7.978941 0.000000 0.000000 0.000000 10.493787 1.768591 -1.126753 3.332793 -5.093830 5.616344 -5.801184 -3.019105 -0.895022 -48.768729 5.621864 -62.407322 -5.445887 -88.631977 -4.207424 0.000000 0.000000 0.000000 11.570436 2.088872 -0.646477 2.729810 13.641121 6.539149 -1.694517 2.816906 0.771631 -38.253608 10.578740 47.909471 177.451375 81.332158 -178.166769 0.000000 0.000000 0.000000 
0.293931 27.020014 1.984484 0.000000 0.000000 0.000000 22.772250 -18.763071 8.419246 -72.417135 -0.502445 23.080835 58.336885 -1.219414 4.166651 -4.075013 2.630215 -26.477517 -2.867923 -0.134146 -0.033082 0.000000 0.000000 0.000000 22.681421 -20.306154 9.018301 -64.021788 -2.547793 -24.229094 60.027213 1.773403 -10.955469 -15.461882 -5.530343 20.942724 -4.287254 2.108858 -0.289123 0.000000 0.000000 0.000000 24.473770 -20.701492 8.374822 16.362521 1.992234 -1.143074 10.117264 1.892591 -1.304773 0.926545 0.011202 0.722085 0.000000 0.000000 0.000000 10.845954 1.516278 -0.617045 -6.878569 5.172048 -8.104202 -41.531283 12.218010 7.573823 0.000000 0.000000 0.000000 10.789961 1.568468 -1.015826 3.249760 -4.894701 5.137752 -5.514080 -2.879212 -0.883725 -47.147737 6.123907 -62.490671 -176.755009 -88.992447 -175.459459 0.000000 0.000000 0.000000 11.695248 1.788521 -0.679875 2.775667 13.313051 6.764508 -1.889797 2.892396 0.756828 -37.647975 9.810955 49.442858 178.378983 77.359747 -179.179836 0.000000 0.000000 0.000000 
0.224056 26.942846 2.002098 0.000000 0.000000 0.000000 23.036836 -18.796786 8.729610 -72.707958 -0.416265 23.174314 58.625303 -1.339081 4.263787 -4.250854 2.832184 -26.690043 -2.619735 -0.117366 0.122252 0.000000 0.000000 0.000000 23.193284 -20.463972 9.362053 -64.520849 -2.375120 -23.980992 60.405879 1.651511 -11.224066 -15.655446 -5.287763 20.743875 -4.405654 2.203118 -0.255559 0.000000 0.000000 0.000000 24.718636 -20.560712 8.515521 16.447861 1.809204 -1.109149 10.271103 1.683508 -1.258933 0.867947 0.041026 0.659240 0.000000 0.000000 0.000000 11.089919 1.297492 -0.636452 -6.540892 5.111524 -7.991839 -41.878789 13.014207 7.071667 0.000000 0.000000 0.000000 11.133232 1.340720 -0.919308 3.181046 -4.888612 4.414504 -5.237708 -2.628352 -0.729997 -45.635520 6.534779 -62.322430 -179.679560 -87.113168 -178.293551 0.000000 0.000000 0.000000 11.893864 1.499207 -0.697263 2.839907 13.002814 6.707921 -2.029184 3.005774 0.787176 -37.168199 8.715199 50.853388 178.727431 73.801867 -179.603526 0.000000 0.000000 0.000000 
0.127096 26.848127 1.986589 0.000000 0.000000 0.000000 23.305879 -18.845955 8.968701 -72.958523 -0.525151 23.329853 58.928468 -1.335441 4.382923 -4.383773 3.168051 -26.978178 -2.492643 -0.094165 0.269635 0.000000 0.000000 0.000000 23.600902 -20.614976 9.610540 -65.060441 -2.236746 -23.727416 61.077505 1.374792 -11.369202 -15.910753 -5.002902 20.527143 -4.735681 2.274849 -0.202450 0.000000 0.000000 0.000000 25.006895 -20.408853 8.639597 16.485768 1.625810 -1.013880 10.474022 1.513789 -1.187335 0.948693 0.166120 0.721955 0.000000 0.000000 0.000000 11.314980 1.117998 -0.645911 -6.300929 5.014016 -8.054389 -42.290452 13.819010 6.476685 0.000000 0.000000 0.000000 11.486419 1.142325 -0.840166 3.099911 -4.928127 3.400666 -4.910887 -2.361587 -0.454859 -44.391281 6.700481 -62.184262 -179.865396 -85.861516 -178.401686 0.000000 0.000000 0.000000 12.146836 1.289476 -0.703941 2.890320 12.745334 6.547102 -2.154343 3.028612 1.037907 -36.680226 7.860711 51.892594 178.846413 71.265162 -179.800017 0.000000 0.000000 0.000000 
0.011958 26.731815 1.934912 0.000000 0.000000 0.000000 23.536909 -18.852961 9.093813 -73.203420 -0.828410 23.498815 59.240785 -1.282775 4.521752 -4.422458 3.539907 -27.395320 -2.571876 -0.078213 0.443367 0.000000 0.000000 0.000000 23.903932 -20.736208 9.753132 -65.669708 -2.057164 -23.499042 62.017435 1.050985 -11.431064 -16.304906 -4.706553 20.376527 -5.164881 2.318867 -0.152596 0.000000 0.000000 0.000000 25.294769 -20.221644 8.746487 16.449679 1.467865 -0.853800 10.697488 1.403170 -1.098141 0.915301 0.273126 0.804955 0.000000 0.000000 0.000000 11.547109 1.005967 -0.636729 -6.127296 4.883304 -8.272591 -42.700454 14.601654 5.772378 0.000000 0.000000 0.000000 11.831548 1.001489 -0.759657 2.984544 -4.876546 2.125316 -4.682922 -2.128560 -0.371328 -43.307641 6.670299 -62.181011 -179.542287 -85.174153 -178.068550 0.000000 0.000000 0.000000 12.396615 1.151479 -0.674188 2.909671 12.483083 6.418627 -2.159531 3.115832 1.388271 -36.081038 7.515956 52.487337 178.902530 69.836150 -179.953901 0.000000 0.000000 0.000000 
-0.122894 26.598837 1.855103 0.000000 0.000000 0.000000 23.697970 -18.829100 9.111200 -73.428966 -1.267785 23.656142 59.500742 -1.262859 4.670207 -4.351922 3.834864 -27.973859 -2.828603 -0.075827 0.664352 0.000000 0.000000 0.000000 24.087299 -20.759341 9.788046 -66.252282 -1.805299 -23.311079 63.132463 0.744226 -11.450828 -16.880116 -4.411235 20.317489 -5.519388 2.331104 -0.115769 0.000000 0.000000 0.000000 25.513914 -20.015755 8.844968 16.328474 1.346221 -0.649130 10.912014 1.329982 -0.989413 0.794331 0.325900 0.894993 0.000000 0.000000 0.000000 11.775770 0.952852 -0.599523 -5.940007 4.740917 -8.620795 -43.049477 15.360006 5.012144 0.000000 0.000000 0.000000 12.154973 0.904658 -0.661320 2.837864 -4.637070 0.806304 -4.537981 -2.026655 -0.440388 -42.382994 6.448227 -62.324274 -179.419029 -84.706387 -178.038252 0.000000 0.000000 0.000000 12.636907 1.068904 -0.606679 2.896152 12.178991 6.365591 -2.055649 3.249367 1.872594 -35.304684 7.728619 52.675727 178.944427 69.088149 179.910571 0.000000 0.000000 0.000000 
